<svg id="svg" version="1.1" width="400" height="400" xmlns="http://www.w3.org/2000/svg" xmlns:xlink="http://www.w3.org/1999/xlink" style="display: block;"><g id="svgg"><path id="path0" d="" stroke="none" fill="#000000" fill-rule="evenodd"></path><path id="path1" d="" stroke="none" fill="#555555" fill-rule="evenodd"></path><path id="path2" d="M58.036 151.614 C 56.281 152.356,54.800 155.081,54.800 157.569 C 54.800 158.378,54.635 159.211,54.434 159.420 C 54.233 159.629,53.840 164.795,53.561 170.900 C 53.282 177.005,52.952 182.000,52.827 182.000 C 52.702 182.000,52.594 182.585,52.587 183.300 C 52.542 187.724,51.089 210.340,50.807 211.000 C 50.619 211.440,50.155 216.930,49.775 223.200 C 49.395 229.470,48.931 234.771,48.742 234.980 C 48.554 235.189,48.392 236.539,48.382 237.980 C 48.363 240.847,47.490 248.805,46.778 252.600 C 46.296 255.171,46.501 261.151,47.085 261.555 C 47.280 261.690,47.651 262.520,47.911 263.400 C 48.568 265.626,54.400 268.008,54.400 266.050 C 54.400 265.858,54.915 265.597,55.543 265.471 C 56.172 265.346,57.887 264.693,59.353 264.021 C 60.820 263.350,62.196 262.800,62.410 262.800 C 62.625 262.800,62.800 262.663,62.800 262.495 C 62.800 262.327,64.015 261.850,65.500 261.434 C 66.985 261.018,68.380 260.542,68.600 260.375 C 69.061 260.025,74.780 258.800,75.950 258.800 C 76.381 258.800,76.808 258.575,76.900 258.300 C 77.028 257.916,79.620 257.800,88.051 257.800 C 99.669 257.800,99.373 257.841,101.600 255.906 C 102.383 255.225,103.200 253.761,103.200 253.039 C 103.200 252.724,103.422 252.393,103.693 252.302 C 105.452 251.716,103.810 242.843,101.771 241.914 C 101.237 241.671,100.800 241.320,100.800 241.136 C 100.800 240.951,100.170 240.800,99.400 240.800 C 98.630 240.800,98.000 240.958,98.000 241.151 C 98.000 241.679,93.118 242.800,90.818 242.800 C 89.708 242.800,88.800 242.980,88.800 243.200 C 88.800 243.420,87.855 243.604,86.700 243.608 C 82.929 243.622,72.381 244.789,72.000 245.234 C 71.750 245.525,65.320 246.801,64.100 246.800 C 63.605 246.800,63.200 246.980,63.200 247.200 C 63.200 247.420,62.386 247.600,61.390 247.600 C 58.755 247.600,58.639 247.090,59.162 237.800 C 59.397 233.620,59.696 228.040,59.826 225.400 C 59.956 222.760,60.217 220.240,60.405 219.800 C 60.709 219.091,60.921 216.204,61.882 199.700 C 62.013 197.445,62.241 195.600,62.387 195.600 C 62.534 195.600,62.880 192.135,63.156 187.900 C 63.432 183.665,63.822 179.480,64.023 178.600 C 65.159 173.628,66.006 156.623,65.213 154.726 C 63.996 151.818,60.817 150.440,58.036 151.614 M314.800 212.655 C 314.030 212.748,313.040 212.986,312.600 213.184 C 312.160 213.382,311.080 213.763,310.200 214.030 C 309.320 214.297,308.510 214.625,308.400 214.758 C 308.290 214.891,307.481 215.360,306.603 215.800 C 304.822 216.692,303.882 217.371,302.586 218.700 C 302.103 219.195,301.525 219.600,301.300 219.600 C 301.076 219.600,300.625 220.005,300.300 220.500 C 299.974 220.995,298.955 222.210,298.036 223.200 C 297.116 224.190,296.102 225.285,295.782 225.634 C 295.462 225.982,295.200 226.432,295.200 226.634 C 295.199 226.835,294.749 227.523,294.200 228.162 C 293.650 228.801,293.200 229.572,293.200 229.875 C 293.200 230.177,292.939 230.525,292.619 230.648 C 292.300 230.770,291.828 231.530,291.571 232.335 C 291.314 233.141,290.782 234.340,290.390 235.000 C 289.998 235.660,289.448 237.010,289.169 238.000 C 288.889 238.990,288.498 240.014,288.301 240.276 C 285.969 243.368,285.936 261.855,288.259 263.551 C 288.616 263.811,289.424 265.017,289.861 265.940 C 290.385 267.048,292.538 268.827,294.261 269.576 C 294.735 269.782,295.234 270.131,295.370 270.352 C 295.507 270.573,296.469 270.877,297.509 271.027 C 298.549 271.178,299.580 271.442,299.800 271.615 C 300.311 272.016,307.269 272.028,307.800 271.628 C 308.020 271.463,309.505 271.102,311.100 270.827 C 312.695 270.552,314.000 270.178,314.000 269.995 C 314.000 269.812,314.675 269.445,315.500 269.180 C 316.325 268.916,317.270 268.495,317.600 268.245 C 317.930 267.995,318.830 267.443,319.600 267.018 C 320.370 266.593,321.207 266.055,321.460 265.822 C 321.712 265.590,322.591 264.860,323.413 264.200 C 325.882 262.217,329.200 258.932,329.200 258.471 C 329.200 258.234,329.435 257.896,329.722 257.720 C 330.336 257.343,331.600 254.748,331.600 253.863 C 331.600 253.524,331.780 253.136,332.000 253.000 C 332.220 252.864,332.400 252.313,332.400 251.776 C 332.400 251.239,332.220 250.800,332.000 250.800 C 331.780 250.800,331.600 250.476,331.600 250.080 C 331.600 249.684,331.384 249.144,331.120 248.880 C 330.540 248.300,328.400 248.237,328.400 248.800 C 328.400 249.020,328.141 249.200,327.826 249.200 C 327.510 249.200,325.810 250.595,324.049 252.300 C 320.135 256.090,319.763 256.397,317.890 257.391 C 317.071 257.826,316.400 258.297,316.400 258.437 C 316.400 258.577,315.545 259.011,314.500 259.402 C 313.455 259.793,312.420 260.244,312.200 260.404 C 310.132 261.910,302.480 261.906,300.278 260.397 C 297.089 258.212,295.488 251.600,298.147 251.600 C 298.459 251.600,298.805 251.365,298.915 251.078 C 299.025 250.791,299.854 250.312,300.757 250.014 C 301.661 249.716,302.400 249.333,302.400 249.163 C 302.400 248.993,302.720 248.752,303.112 248.628 C 304.033 248.336,308.013 245.827,308.834 245.022 C 309.182 244.680,309.603 244.400,309.768 244.400 C 310.253 244.400,313.752 241.865,314.323 241.100 C 314.610 240.715,315.020 240.400,315.233 240.400 C 315.664 240.400,317.558 238.737,320.246 236.000 C 323.144 233.049,323.478 232.641,323.772 231.700 C 323.927 231.205,324.201 230.800,324.380 230.800 C 324.559 230.800,325.042 229.722,325.453 228.403 C 325.864 227.085,326.310 226.005,326.444 226.003 C 326.578 226.002,326.721 224.598,326.762 222.886 C 326.937 215.661,322.353 211.741,314.800 212.655 M133.036 214.741 C 132.921 214.928,131.624 215.194,130.155 215.331 C 126.987 215.627,122.384 217.703,119.924 219.944 C 117.276 222.357,114.000 225.791,114.000 226.154 C 114.000 226.434,111.513 230.150,111.157 230.401 C 111.001 230.512,110.554 231.412,110.164 232.401 C 109.774 233.391,109.353 234.290,109.228 234.400 C 108.609 234.944,106.837 239.294,106.374 241.409 C 106.085 242.724,105.658 243.928,105.425 244.085 C 104.623 244.624,104.870 259.616,105.700 260.789 C 106.085 261.333,106.400 262.002,106.400 262.275 C 106.400 263.496,110.973 269.200,111.952 269.200 C 112.131 269.200,112.688 269.556,113.190 269.992 C 113.692 270.427,114.755 270.900,115.551 271.044 C 116.348 271.187,117.208 271.468,117.461 271.669 C 118.008 272.101,125.600 272.040,125.600 271.603 C 125.600 271.438,126.338 271.184,127.241 271.040 C 128.773 270.795,133.955 268.621,134.400 268.036 C 134.510 267.892,135.590 267.072,136.800 266.214 C 139.035 264.630,144.107 259.673,145.200 258.005 C 145.530 257.501,146.179 256.619,146.643 256.044 C 149.177 252.907,152.400 245.178,152.400 242.242 C 152.400 241.669,152.559 241.200,152.754 241.200 C 153.226 241.200,153.339 232.457,152.874 231.864 C 152.673 231.609,152.386 230.590,152.236 229.600 C 151.938 227.635,149.756 222.800,149.167 222.800 C 148.965 222.800,148.800 222.550,148.800 222.245 C 148.800 221.616,145.984 218.679,144.010 217.250 C 142.568 216.207,139.317 215.212,137.324 215.205 C 136.622 215.202,135.936 215.020,135.800 214.800 C 135.499 214.313,133.330 214.266,133.036 214.741 M198.421 215.844 C 197.003 216.154,195.743 216.542,195.621 216.706 C 195.500 216.870,194.680 217.254,193.800 217.559 C 192.920 217.864,191.771 218.448,191.246 218.857 C 190.721 219.266,190.068 219.600,189.795 219.600 C 189.522 219.600,189.076 219.868,188.804 220.196 C 188.532 220.523,188.169 220.704,187.997 220.598 C 187.825 220.492,187.581 220.674,187.454 221.002 C 187.328 221.331,186.958 221.600,186.632 221.600 C 186.306 221.600,185.896 221.825,185.720 222.100 C 185.544 222.375,184.790 222.940,184.045 223.355 C 182.350 224.299,182.120 224.503,177.109 229.482 C 173.215 233.351,170.954 236.079,170.313 237.682 C 170.155 238.077,169.852 238.400,169.640 238.400 C 169.428 238.400,169.126 238.803,168.970 239.295 C 168.814 239.787,168.273 240.822,167.767 241.595 C 167.262 242.368,166.720 243.540,166.563 244.200 C 166.405 244.860,166.116 245.506,165.919 245.635 C 165.493 245.916,164.412 249.819,164.405 251.100 C 164.402 251.595,164.220 252.000,164.000 252.000 C 163.512 252.000,163.450 260.069,163.934 260.620 C 164.118 260.829,164.572 261.810,164.944 262.800 C 166.117 265.922,168.467 267.319,172.909 267.531 C 176.803 267.717,181.697 267.046,182.532 266.211 C 182.814 265.928,183.598 265.576,184.273 265.428 C 184.949 265.279,186.099 264.718,186.828 264.179 C 187.558 263.641,188.350 263.200,188.589 263.200 C 188.827 263.200,189.313 262.885,189.668 262.500 C 190.023 262.115,191.242 261.170,192.376 260.400 C 194.617 258.879,199.600 254.167,199.600 253.569 C 199.600 253.366,199.780 253.200,200.000 253.200 C 200.220 253.200,200.400 254.100,200.400 255.200 C 200.400 256.300,200.240 257.200,200.044 257.200 C 199.849 257.200,199.710 257.425,199.736 257.700 C 199.889 259.319,198.515 270.258,198.015 271.400 C 197.822 271.840,197.347 273.640,196.959 275.400 C 196.571 277.160,196.151 278.690,196.025 278.800 C 195.899 278.910,195.546 279.720,195.241 280.600 C 194.937 281.480,194.568 282.290,194.423 282.400 C 194.277 282.510,193.863 283.230,193.502 284.000 C 190.949 289.450,182.473 292.923,177.561 290.533 C 177.032 290.275,175.385 289.754,173.900 289.373 C 172.415 288.993,171.200 288.542,171.200 288.372 C 171.200 288.201,170.530 287.841,169.711 287.571 C 168.892 287.300,167.979 286.836,167.682 286.540 C 167.386 286.243,166.913 286.000,166.631 286.000 C 166.350 286.000,165.418 285.494,164.560 284.876 C 163.702 284.258,162.685 283.634,162.300 283.489 C 161.915 283.344,161.600 283.059,161.600 282.856 C 161.600 282.653,161.183 282.382,160.674 282.254 C 160.164 282.126,159.327 281.657,158.813 281.211 C 157.751 280.290,155.742 280.166,154.700 280.957 C 153.951 281.526,153.646 286.000,154.357 286.000 C 154.553 286.000,154.818 286.416,154.945 286.925 C 155.309 288.373,161.191 294.000,162.341 294.000 C 162.594 294.000,162.800 294.172,162.800 294.381 C 162.800 294.591,163.422 295.057,164.182 295.418 C 164.941 295.779,165.774 296.327,166.031 296.637 C 166.288 296.947,166.733 297.200,167.020 297.200 C 167.308 297.200,167.781 297.430,168.071 297.711 C 168.362 297.992,169.680 298.576,171.000 299.009 C 172.320 299.442,173.490 299.912,173.600 300.054 C 174.652 301.407,189.200 301.367,189.200 300.011 C 189.200 299.842,190.001 299.480,190.980 299.206 C 191.959 298.932,193.067 298.368,193.442 297.954 C 193.817 297.539,194.302 297.200,194.520 297.200 C 195.123 297.200,201.093 290.967,201.392 290.026 C 201.536 289.572,201.822 289.200,202.027 289.200 C 202.232 289.200,202.400 288.955,202.400 288.656 C 202.400 288.357,202.811 287.502,203.312 286.756 C 203.814 286.010,204.464 284.590,204.757 283.600 C 205.049 282.610,205.432 281.710,205.608 281.599 C 205.980 281.365,207.200 275.708,207.200 274.217 C 207.200 273.658,207.348 273.200,207.528 273.200 C 207.874 273.200,208.603 267.500,209.049 261.300 C 209.195 259.265,209.434 257.600,209.579 257.600 C 209.725 257.600,210.075 254.765,210.357 251.300 C 210.639 247.835,211.005 244.820,211.171 244.600 C 211.337 244.380,211.796 242.265,212.192 239.900 C 212.587 237.535,213.053 235.600,213.228 235.600 C 213.403 235.600,213.846 234.250,214.213 232.600 C 214.580 230.950,215.013 229.600,215.176 229.600 C 215.715 229.600,216.518 225.284,216.269 223.729 C 215.876 221.278,214.344 218.576,212.900 217.785 C 212.185 217.394,211.600 216.935,211.600 216.765 C 211.600 215.415,203.101 214.821,198.421 215.844 M259.418 215.819 C 258.108 216.149,256.938 216.550,256.818 216.709 C 256.698 216.869,255.610 217.337,254.400 217.749 C 253.190 218.160,252.110 218.612,252.000 218.752 C 251.890 218.893,250.630 219.717,249.200 220.584 C 247.770 221.451,246.362 222.394,246.071 222.680 C 245.781 222.966,245.410 223.200,245.247 223.200 C 245.084 223.200,244.602 223.522,244.175 223.917 C 243.749 224.311,242.439 225.391,241.264 226.317 C 240.089 227.242,239.259 228.000,239.418 228.000 C 239.577 228.000,239.203 228.397,238.585 228.883 C 236.702 230.365,232.800 234.850,232.800 235.533 C 232.800 235.768,232.573 236.104,232.296 236.280 C 232.019 236.456,231.438 237.275,231.005 238.100 C 230.572 238.925,230.097 239.600,229.949 239.600 C 229.801 239.600,229.357 240.500,228.961 241.600 C 228.566 242.700,228.111 243.600,227.952 243.600 C 227.793 243.600,227.445 244.275,227.179 245.100 C 226.913 245.925,226.535 246.804,226.337 247.053 C 224.410 249.493,224.429 261.404,226.363 263.674 C 229.416 267.256,230.212 267.603,235.350 267.594 C 240.495 267.585,248.798 264.774,250.354 262.515 C 250.489 262.319,251.255 261.854,252.056 261.481 C 252.858 261.109,253.617 260.533,253.744 260.202 C 253.871 259.871,254.180 259.600,254.431 259.600 C 254.682 259.600,256.231 258.234,257.874 256.564 C 259.517 254.894,260.953 253.620,261.066 253.733 C 261.376 254.042,260.741 262.800,260.409 262.800 C 260.251 262.800,260.107 263.333,260.088 263.984 C 260.035 265.858,258.734 273.779,258.443 274.000 C 258.298 274.110,257.839 275.595,257.423 277.300 C 257.007 279.005,256.545 280.400,256.397 280.400 C 256.249 280.400,255.888 281.127,255.595 282.016 C 254.675 284.803,250.724 289.408,248.862 289.863 C 248.278 290.006,247.671 290.320,247.514 290.562 C 247.144 291.129,238.864 291.135,238.478 290.568 C 238.325 290.343,237.217 289.938,236.015 289.667 C 234.149 289.247,229.830 287.430,229.200 286.800 C 229.090 286.690,228.280 286.240,227.400 285.800 C 225.741 284.971,223.354 283.508,222.521 282.809 C 215.627 277.026,211.869 283.480,218.306 290.048 C 219.348 291.110,220.406 291.984,220.657 291.990 C 220.909 291.995,221.219 292.273,221.347 292.606 C 221.475 292.939,222.034 293.385,222.590 293.596 C 223.145 293.807,223.600 294.137,223.600 294.329 C 223.600 294.521,224.320 295.003,225.200 295.400 C 226.080 295.797,226.800 296.252,226.800 296.412 C 226.800 296.572,227.385 296.940,228.100 297.229 C 228.815 297.518,229.490 297.864,229.600 297.998 C 229.907 298.371,233.343 299.600,234.080 299.600 C 234.439 299.600,234.796 299.789,234.874 300.021 C 235.304 301.312,249.118 301.356,249.974 300.068 C 250.098 299.881,251.058 299.439,252.107 299.086 C 253.155 298.733,254.276 298.209,254.596 297.922 C 254.917 297.635,255.664 297.040,256.255 296.600 C 257.610 295.592,261.600 291.515,261.600 291.139 C 261.600 290.984,261.873 290.584,262.208 290.249 C 263.329 289.128,266.712 281.825,267.234 279.400 C 267.518 278.080,267.880 276.910,268.038 276.799 C 268.359 276.575,269.600 266.977,269.600 264.717 C 269.600 263.919,269.750 263.207,269.933 263.133 C 270.116 263.060,270.558 259.850,270.914 256.000 C 271.270 252.150,271.745 247.920,271.968 246.600 C 272.192 245.280,272.582 242.940,272.834 241.400 C 273.087 239.860,273.435 238.420,273.608 238.200 C 273.782 237.980,274.241 236.315,274.630 234.500 C 275.018 232.685,275.462 231.200,275.616 231.200 C 275.770 231.200,276.127 230.345,276.410 229.300 C 276.693 228.255,277.085 227.191,277.282 226.935 C 277.693 226.402,277.594 222.800,277.170 222.800 C 277.015 222.800,276.778 222.209,276.643 221.487 C 276.324 219.786,273.795 217.163,271.395 216.043 C 269.623 215.216,262.349 215.080,259.418 215.819 M381.800 215.451 C 378.558 216.093,376.800 216.568,376.800 216.801 C 376.800 216.951,376.170 217.413,375.400 217.828 C 374.630 218.243,374.000 218.721,374.000 218.891 C 374.000 219.061,373.762 219.200,373.472 219.200 C 372.950 219.200,367.352 224.881,365.800 226.985 C 365.360 227.582,364.637 228.459,364.194 228.935 C 363.751 229.411,363.122 230.340,362.795 231.000 C 362.468 231.660,362.077 232.294,361.925 232.409 C 361.396 232.808,359.768 235.407,359.237 236.700 C 358.943 237.415,358.559 238.000,358.384 238.000 C 358.208 238.000,357.753 238.945,357.373 240.100 C 356.993 241.255,356.556 242.290,356.401 242.400 C 356.246 242.510,356.017 242.870,355.892 243.200 C 355.488 244.261,355.585 239.928,356.065 235.500 C 356.321 233.135,356.681 231.200,356.865 231.200 C 357.049 231.200,357.200 230.759,357.200 230.220 C 357.200 229.680,357.486 228.195,357.835 226.920 C 359.012 222.615,359.181 221.804,359.190 220.394 C 359.224 215.389,353.568 213.859,349.709 217.829 C 348.769 218.796,347.991 219.816,347.979 220.094 C 347.968 220.372,347.783 221.860,347.568 223.400 C 346.235 232.958,345.979 236.524,345.745 248.800 C 345.359 269.018,346.140 272.400,351.194 272.400 C 352.863 272.400,355.989 270.969,355.999 270.200 C 356.002 269.980,356.268 269.295,356.591 268.677 C 356.913 268.060,357.372 265.990,357.610 264.077 C 357.849 262.165,358.213 260.240,358.418 259.800 C 358.624 259.360,359.050 257.865,359.366 256.477 C 359.681 255.090,360.106 253.740,360.309 253.477 C 360.512 253.215,360.993 252.010,361.379 250.800 C 361.765 249.590,362.200 248.510,362.346 248.400 C 362.493 248.290,363.308 246.850,364.159 245.200 C 365.010 243.550,365.831 242.110,365.983 242.000 C 366.135 241.890,366.607 241.170,367.030 240.400 C 367.454 239.630,368.025 238.856,368.300 238.680 C 368.575 238.504,368.800 238.127,368.800 237.842 C 368.800 237.033,374.540 230.507,377.049 228.463 C 377.682 227.947,378.695 227.344,379.300 227.123 C 379.905 226.903,380.400 226.559,380.400 226.361 C 380.400 225.344,383.225 226.052,384.581 227.408 C 388.664 231.491,394.000 230.032,394.000 224.831 C 394.000 218.333,388.521 214.121,381.800 215.451 M316.284 222.800 C 316.399 223.240,316.652 223.600,316.847 223.600 C 317.041 223.600,317.200 223.870,317.200 224.200 C 317.200 224.530,317.059 224.800,316.887 224.800 C 316.715 224.800,316.338 225.600,316.049 226.579 C 315.745 227.612,315.121 228.622,314.562 228.988 C 314.033 229.335,313.600 229.788,313.600 229.996 C 313.600 230.406,311.593 232.405,309.580 234.000 C 308.885 234.550,307.751 235.492,307.059 236.094 C 306.366 236.695,305.575 237.190,305.300 237.194 C 305.025 237.197,304.800 237.372,304.800 237.581 C 304.800 237.791,304.170 238.261,303.400 238.627 C 302.630 238.992,302.000 239.439,302.000 239.620 C 302.000 239.800,301.380 240.173,300.621 240.447 C 299.863 240.721,299.322 241.074,299.419 241.231 C 299.516 241.388,299.315 241.624,298.972 241.756 C 298.518 241.929,298.403 241.804,298.548 241.297 C 298.659 240.914,298.969 239.835,299.238 238.900 C 299.507 237.965,299.866 237.200,300.036 237.200 C 300.207 237.200,300.464 236.795,300.609 236.300 C 301.057 234.763,301.784 233.200,302.049 233.200 C 302.189 233.200,302.527 232.660,302.800 232.000 C 303.073 231.340,303.416 230.800,303.562 230.800 C 303.708 230.800,304.133 230.283,304.506 229.651 C 305.144 228.571,309.479 224.000,309.865 224.000 C 309.962 224.000,310.705 223.550,311.514 223.000 C 313.402 221.717,315.973 221.609,316.284 222.800 M134.800 224.355 C 134.800 224.551,135.475 224.834,136.300 224.985 C 137.847 225.268,140.800 227.694,140.800 228.681 C 140.800 228.967,140.973 229.200,141.185 229.200 C 141.741 229.200,142.800 233.050,142.800 235.073 C 142.800 236.149,142.981 236.800,143.280 236.800 C 143.653 236.800,143.653 236.907,143.280 237.280 C 143.016 237.544,142.796 238.579,142.790 239.580 C 142.773 242.788,140.724 249.016,139.516 249.532 C 139.346 249.605,138.935 250.235,138.603 250.932 C 137.604 253.028,130.907 259.574,129.743 259.593 C 129.491 259.597,129.191 259.846,129.076 260.146 C 128.961 260.446,128.042 260.936,127.033 261.233 C 126.025 261.531,125.200 261.915,125.200 262.087 C 125.200 262.259,124.047 262.400,122.637 262.400 C 119.496 262.400,116.835 260.294,115.992 257.143 C 115.735 256.184,115.362 255.087,115.163 254.705 C 114.721 253.860,114.676 248.800,115.110 248.800 C 115.280 248.800,115.640 247.416,115.909 245.724 C 116.178 244.032,116.534 242.547,116.699 242.424 C 116.865 242.301,117.072 241.930,117.161 241.600 C 117.593 239.986,118.571 237.378,118.811 237.200 C 118.960 237.090,119.417 236.280,119.828 235.400 C 120.238 234.520,120.895 233.451,121.287 233.025 C 121.679 232.598,122.000 232.034,122.000 231.772 C 122.000 230.151,128.534 225.080,131.134 224.683 C 131.599 224.612,132.104 224.429,132.256 224.277 C 132.661 223.872,134.800 223.938,134.800 224.355 M203.756 225.413 C 204.954 226.611,204.834 234.400,203.618 234.400 C 203.448 234.400,202.986 235.255,202.592 236.300 C 202.198 237.345,201.634 238.344,201.338 238.520 C 201.042 238.696,200.800 239.088,200.800 239.391 C 200.800 239.695,200.575 240.184,200.300 240.479 C 200.025 240.773,199.452 241.641,199.027 242.407 C 198.602 243.173,197.927 244.035,197.527 244.323 C 197.127 244.610,196.800 245.038,196.800 245.274 C 196.800 245.807,190.971 251.600,190.436 251.600 C 190.221 251.600,189.810 251.915,189.523 252.300 C 189.235 252.685,188.505 253.255,187.900 253.568 C 187.295 253.880,186.800 254.270,186.800 254.436 C 186.800 254.601,186.284 254.850,185.654 254.988 C 185.024 255.127,184.156 255.568,183.726 255.968 C 182.944 256.697,178.539 258.000,176.856 258.000 C 174.943 258.000,173.864 256.204,174.131 253.464 C 174.348 251.241,175.079 248.521,175.600 248.000 C 175.872 247.728,176.983 245.759,178.027 243.700 C 178.500 242.765,179.036 242.000,179.217 242.000 C 179.398 242.000,179.647 241.685,179.771 241.300 C 179.894 240.915,180.445 240.060,180.995 239.400 C 181.545 238.740,182.581 237.496,183.297 236.637 C 185.510 233.981,190.202 229.600,190.834 229.600 C 191.031 229.600,191.418 229.240,191.693 228.800 C 191.968 228.360,192.394 228.000,192.640 228.000 C 192.887 228.000,193.743 227.555,194.544 227.012 C 197.440 225.047,202.510 224.167,203.756 225.413 M264.853 225.653 C 266.229 227.029,265.738 231.904,263.836 235.753 C 263.046 237.352,262.400 238.871,262.400 239.130 C 262.400 239.388,262.249 239.600,262.064 239.600 C 261.880 239.600,261.520 240.057,261.266 240.615 C 261.012 241.173,260.621 241.848,260.398 242.115 C 260.175 242.382,259.247 243.560,258.336 244.733 C 256.221 247.456,251.597 252.000,250.942 252.000 C 250.666 252.000,250.296 252.226,250.120 252.501 C 249.709 253.145,246.950 254.995,245.400 255.665 C 244.740 255.950,244.104 256.314,243.987 256.474 C 243.171 257.589,237.366 258.272,236.121 257.400 C 234.769 256.453,234.638 249.600,235.972 249.600 C 236.119 249.600,236.481 248.925,236.776 248.100 C 237.071 247.275,237.427 246.510,237.567 246.400 C 237.707 246.290,238.155 245.446,238.561 244.524 C 238.968 243.602,239.548 242.752,239.850 242.636 C 240.153 242.520,240.400 242.183,240.400 241.888 C 240.400 241.593,240.718 241.002,241.106 240.575 C 241.494 240.149,242.529 238.910,243.406 237.821 C 245.443 235.292,248.500 232.236,251.021 230.208 C 252.110 229.333,253.238 228.388,253.529 228.108 C 253.819 227.829,254.280 227.600,254.553 227.600 C 254.826 227.600,255.424 227.251,255.881 226.825 C 257.914 224.931,263.413 224.213,264.853 225.653 " stroke="none" fill="#ebebeb" fill-rule="evenodd"></path><path id="path3" d="M57.000 132.846 C 55.020 133.032,52.230 133.389,50.800 133.639 C 49.370 133.889,45.410 134.387,42.000 134.747 C 38.590 135.106,35.598 135.531,35.351 135.692 C 35.104 135.853,28.804 136.175,21.351 136.409 C 2.298 137.006,2.790 136.884,2.486 141.088 C 2.117 146.179,5.083 147.050,19.200 145.992 C 22.170 145.770,25.364 145.546,26.298 145.494 C 27.232 145.442,27.997 145.265,27.998 145.100 C 27.999 144.935,29.546 144.800,31.436 144.800 L 34.872 144.800 34.588 148.300 C 34.432 150.225,34.170 151.980,34.006 152.200 C 33.842 152.420,33.398 156.200,33.020 160.600 C 32.642 165.000,32.180 168.960,31.993 169.400 C 30.435 173.067,30.478 203.200,32.041 203.200 C 32.238 203.200,32.400 203.436,32.400 203.725 C 32.400 205.560,36.438 207.250,38.874 206.436 C 41.677 205.498,43.747 197.729,41.555 196.372 C 40.901 195.967,40.832 175.692,41.483 175.250 C 41.686 175.112,42.139 171.490,42.489 167.200 C 43.352 156.646,44.754 145.137,45.250 144.540 C 45.473 144.271,46.228 143.929,46.928 143.780 C 47.627 143.630,48.386 143.359,48.613 143.177 C 49.494 142.472,61.469 141.892,69.853 142.147 C 80.215 142.463,81.226 141.930,80.240 136.671 C 79.488 132.662,72.033 131.435,57.000 132.846 M209.600 148.246 C 209.050 148.349,208.240 148.593,207.800 148.788 C 207.360 148.983,206.069 149.436,204.931 149.793 C 203.793 150.151,202.646 150.704,202.382 151.022 C 202.118 151.340,201.725 151.600,201.509 151.600 C 199.758 151.600,191.644 160.055,189.034 164.600 C 188.655 165.260,187.911 166.520,187.380 167.400 C 186.850 168.280,186.300 169.270,186.157 169.600 C 186.015 169.930,185.494 171.100,185.000 172.200 C 184.506 173.300,183.886 175.190,183.622 176.400 C 183.358 177.610,182.930 179.032,182.671 179.560 C 182.058 180.810,182.011 195.500,182.619 195.914 C 182.850 196.071,183.263 196.968,183.538 197.907 C 184.751 202.060,189.599 205.969,194.599 206.826 C 198.863 207.557,208.800 206.651,208.800 205.531 C 208.800 205.349,209.077 205.200,209.416 205.200 C 212.700 205.200,224.070 195.985,226.300 191.516 C 229.842 184.419,226.249 181.421,220.709 186.850 C 216.677 190.800,213.091 193.479,210.000 194.848 C 209.450 195.092,208.244 195.639,207.320 196.064 C 201.665 198.664,193.788 196.638,192.933 192.363 C 192.803 191.714,192.540 191.086,192.348 190.968 C 191.684 190.557,192.030 188.595,192.943 187.600 C 193.772 186.696,195.009 185.926,198.600 184.080 C 199.260 183.740,199.890 183.339,200.000 183.187 C 200.110 183.036,200.830 182.591,201.600 182.200 C 202.370 181.809,203.090 181.378,203.200 181.244 C 203.310 181.110,204.030 180.649,204.800 180.220 C 205.570 179.791,206.380 179.297,206.600 179.122 C 206.820 178.947,208.487 177.623,210.305 176.181 C 214.079 173.188,218.400 168.883,218.400 168.117 C 218.400 167.833,218.575 167.600,218.789 167.600 C 219.003 167.600,219.751 166.475,220.452 165.100 C 222.330 161.415,222.577 152.000,220.796 152.000 C 220.608 152.000,220.348 151.666,220.219 151.258 C 220.089 150.851,219.312 150.176,218.492 149.758 C 217.671 149.341,216.892 148.853,216.760 148.674 C 216.481 148.294,211.070 147.971,209.600 148.246 M83.087 150.924 C 82.706 151.505,82.312 153.767,82.025 157.024 C 81.775 159.871,81.399 162.740,81.190 163.400 C 80.982 164.060,80.436 167.300,79.978 170.600 C 76.916 192.644,77.328 204.150,81.211 205.002 C 82.576 205.302,87.466 204.475,88.115 203.834 C 88.382 203.571,88.915 203.236,89.300 203.090 C 89.685 202.944,90.000 202.549,90.000 202.213 C 90.000 201.876,90.147 201.600,90.326 201.600 C 90.505 201.600,90.956 201.015,91.328 200.300 C 91.700 199.585,92.545 198.100,93.207 197.000 C 93.869 195.900,94.794 194.197,95.262 193.215 C 95.730 192.234,96.345 191.197,96.630 190.913 C 96.915 190.628,97.274 189.991,97.428 189.498 C 97.582 189.004,97.831 188.510,97.983 188.400 C 98.134 188.290,99.044 186.760,100.005 185.000 C 100.965 183.240,102.348 180.947,103.076 179.904 C 103.804 178.861,104.400 177.895,104.400 177.758 C 104.400 177.620,105.030 176.649,105.800 175.600 C 106.570 174.551,107.200 173.582,107.200 173.446 C 107.200 173.311,107.560 172.795,108.000 172.300 C 109.193 170.958,109.712 170.325,110.980 168.662 C 112.491 166.681,114.400 165.617,114.400 166.756 C 114.400 167.184,114.560 167.593,114.757 167.667 C 115.252 167.852,115.939 174.680,116.224 182.247 C 116.355 185.741,116.615 188.960,116.801 189.400 C 116.988 189.840,117.227 191.691,117.333 193.514 C 117.536 197.001,117.868 197.806,119.963 199.901 C 123.077 203.016,129.926 200.645,131.421 195.934 C 131.549 195.530,131.804 195.200,131.987 195.200 C 132.171 195.200,132.654 194.391,133.060 193.401 C 133.467 192.412,133.908 191.602,134.039 191.601 C 134.171 191.601,134.619 190.835,135.034 189.900 C 135.450 188.965,135.931 188.020,136.104 187.800 C 136.469 187.337,139.175 182.320,140.636 179.400 C 141.186 178.300,142.169 176.500,142.821 175.400 C 143.472 174.300,144.225 172.950,144.494 172.400 C 144.763 171.850,145.212 171.256,145.492 171.080 C 145.771 170.904,146.000 170.544,146.000 170.280 C 146.000 169.488,149.939 165.600,150.740 165.600 C 151.580 165.600,152.490 170.321,153.477 179.800 C 153.821 183.100,154.259 185.860,154.451 185.933 C 154.643 186.007,154.800 186.580,154.800 187.207 C 154.800 192.849,158.619 200.777,162.281 202.736 C 166.281 204.877,173.200 201.487,173.200 197.388 C 173.200 195.651,171.424 193.207,170.158 193.202 C 166.916 193.188,162.888 180.738,162.815 170.500 C 162.807 169.345,162.620 168.400,162.400 168.400 C 162.180 168.400,162.000 167.786,162.000 167.035 C 162.000 165.327,160.981 159.922,160.473 158.937 C 160.264 158.531,159.850 157.660,159.552 157.000 C 158.438 154.528,156.273 153.200,153.358 153.200 C 151.216 153.200,148.000 153.949,148.000 154.447 C 148.000 154.641,147.736 154.800,147.414 154.800 C 145.832 154.800,138.000 164.369,138.000 166.302 C 138.000 166.539,137.861 166.793,137.692 166.867 C 137.523 166.940,136.149 169.430,134.640 172.400 C 130.851 179.856,130.273 180.923,129.700 181.529 C 129.425 181.819,129.200 182.200,129.200 182.374 C 129.200 182.548,128.692 183.330,128.070 184.112 C 126.112 186.575,125.949 186.003,125.358 174.606 C 125.065 168.953,124.650 163.759,124.436 163.064 C 124.222 162.369,123.846 160.777,123.600 159.526 C 123.355 158.275,123.029 157.195,122.877 157.126 C 122.725 157.057,122.305 156.460,121.945 155.800 C 121.096 154.244,119.050 153.201,116.846 153.201 C 114.954 153.200,112.000 153.943,112.000 154.420 C 112.000 154.581,111.567 154.822,111.039 154.955 C 108.724 155.536,101.947 164.051,96.714 172.954 C 96.211 173.809,95.618 174.799,95.395 175.154 C 95.172 175.509,94.462 176.700,93.817 177.800 C 93.172 178.900,92.229 180.357,91.722 181.038 C 91.215 181.719,90.800 182.484,90.800 182.738 C 90.800 182.992,90.625 183.200,90.410 183.200 C 90.196 183.200,89.717 183.785,89.346 184.500 C 88.604 185.929,88.015 185.322,88.725 183.861 C 88.955 183.387,89.344 181.200,89.589 179.000 C 89.834 176.800,90.197 174.640,90.397 174.200 C 91.583 171.586,92.482 155.755,91.583 153.326 C 90.416 150.175,84.646 148.543,83.087 150.924 M212.236 158.601 C 212.489 159.607,211.917 162.062,211.242 162.875 C 211.002 163.164,210.164 164.195,209.379 165.166 C 208.595 166.137,206.838 167.897,205.476 169.076 C 204.114 170.255,202.715 171.485,202.366 171.810 C 202.018 172.134,201.611 172.400,201.463 172.400 C 201.315 172.400,200.496 172.895,199.644 173.500 C 198.792 174.105,197.758 174.822,197.347 175.093 C 196.936 175.364,195.912 176.042,195.071 176.601 L 193.541 177.616 193.808 176.708 C 194.440 174.553,197.489 168.225,198.400 167.177 C 198.730 166.797,199.537 165.736,200.194 164.820 C 204.324 159.057,211.430 155.388,212.236 158.601 " stroke="none" fill="#8baad9" fill-rule="evenodd"></path><path id="path4" d="" stroke="none" fill="#00ffff" fill-rule="evenodd"></path></g></svg>